<?xml version="1.0" encoding="UTF-8" standalone="no"?>
<!-- Created with Inkscape (http://www.inkscape.org/) -->

<svg
   xmlns:dc="http://purl.org/dc/elements/1.1/"
   xmlns:cc="http://creativecommons.org/ns#"
   xmlns:rdf="http://www.w3.org/1999/02/22-rdf-syntax-ns#"
   xmlns:svg="http://www.w3.org/2000/svg"
   xmlns="http://www.w3.org/2000/svg"
   xmlns:sodipodi="http://sodipodi.sourceforge.net/DTD/sodipodi-0.dtd"
   xmlns:inkscape="http://www.inkscape.org/namespaces/inkscape"
   width="210mm"
   height="297mm"
   viewBox="0 0 744.09448819 1052.3622047"
   id="svg3409"
   version="1.1"
   inkscape:version="0.91 r13725"
   sodipodi:docname="CahroozinLogo.svg">
  <defs
     id="defs3411" />
  <sodipodi:namedview
     id="base"
     pagecolor="#ffffff"
     bordercolor="#666666"
     borderopacity="1.0"
     inkscape:pageopacity="0.0"
     inkscape:pageshadow="2"
     inkscape:zoom="0.60150393"
     inkscape:cx="372.04724"
     inkscape:cy="526.1811"
     inkscape:document-units="px"
     inkscape:current-layer="layer1"
     showgrid="false"
     inkscape:window-width="1440"
     inkscape:window-height="838"
     inkscape:window-x="-8"
     inkscape:window-y="-8"
     inkscape:window-maximized="1" />
  <metadata
     id="metadata3414">
    <rdf:RDF>
      <cc:Work
         rdf:about="">
        <dc:format>image/svg+xml</dc:format>
        <dc:type
           rdf:resource="http://purl.org/dc/dcmitype/StillImage" />
        <dc:title></dc:title>
      </cc:Work>
    </rdf:RDF>
  </metadata>
  <g
     inkscape:label="Layer 1"
     inkscape:groupmode="layer"
     id="layer1">
    <g
       id="g3660">
      <path
         inkscape:connector-curvature="0"
         d="m 95.1282,454.98045 c 6.56177,0.0632 13.12441,0.0377 19.68652,0.0262 4.87236,-0.01 9.74474,-0.0147 14.61713,-0.0172 5.12057,-0.003 10.24114,0.0109 15.3617,0.0191 5.56655,-0.30124 11.02283,0.5074 16.51317,1.05795 4.80468,0.46449 9.65108,0.52624 14.4861,0.57835 6.41312,-0.14291 12.7567,0.66291 19.12976,1.09487 6.33521,0.41042 12.69207,0.51986 19.04602,0.57444 5.23549,0.63073 10.46357,1.15918 15.75286,1.42224 5.11387,0.21863 10.23658,0.24219 15.35676,0.25344 4.88001,0.009 9.76,0.003 14.64,-0.004 4.48172,-0.006 8.96345,-0.008 13.44518,-0.01 4.74548,0.11726 9.40166,0.0268 14.08976,-0.54188 5.87156,-0.84025 11.84997,-0.8897 17.79928,-0.99055 8.77617,-0.0853 17.55322,-0.0833 26.32991,-0.1037 6.42861,0.0888 12.87922,-0.25668 19.28368,0.2353 5.93457,0.62899 11.89627,1.02973 17.87732,1.2547 4.68396,0.1506 9.37272,0.15548 14.05985,0.15883 4.29305,-0.002 8.58609,-0.007 12.87914,-0.0103 4.2852,-0.002 8.5704,-0.003 12.85562,-0.003 5.19296,0.009 10.38595,0.0145 15.57894,0.0123 5.99835,0.30523 11.90224,-0.50817 17.82974,-1.0667 5.77007,-0.42618 11.57146,-0.52685 17.36423,-0.57751 5.88328,0.10812 11.80664,-0.31502 17.65984,0.22245 5.31695,0.74612 10.70486,1.05618 16.09423,1.26285 5.37888,0.16781 10.76306,0.15813 16.1452,0.17012 4.99004,0.002 9.98008,-0.0106 14.97011,-0.0169 5.50352,-0.065 11.01528,0.20864 16.49573,-0.22836 5.78722,-0.62136 11.41655,-1.85363 17.19951,-2.53157 4.10826,-0.40371 8.01923,-1.43857 12.13673,-1.86997 5.62582,-0.43014 11.29722,-0.33379 16.94369,-0.33413 8.38714,-0.44115 16.76077,-1.01579 25.1528,-1.40111 6.57193,-0.28332 13.15726,-0.2533 19.73679,-0.27062 5.59716,-0.0142 11.19433,-0.0185 16.79151,-0.0205 0.56308,0.60063 -13.14027,8.31336 -13.70335,7.71272 l 0,0 c -5.56598,-0.0105 -11.13196,-0.0292 -16.69795,-0.0249 -6.56469,0.0182 -13.13236,0.0543 -19.68907,0.33152 -8.3944,0.36883 -16.76811,0.95537 -25.16213,1.32109 -5.65343,0.0437 -11.34194,-0.0153 -16.95535,0.58039 -4.05017,0.54103 -7.9764,1.53296 -12.07871,1.84516 -5.76448,0.74658 -11.4126,1.99142 -17.23733,2.43138 -5.53887,0.27527 -11.09137,0.13238 -16.63957,0.17654 -4.98162,3e-4 -9.96323,8.4e-4 -14.94487,-0.002 -5.39913,-0.005 -10.80009,-0.0389 -16.19456,-0.22803 -5.40457,-0.2532 -10.79298,-0.64125 -16.14197,-1.30639 -5.82642,-0.35204 -11.68935,-0.0756 -17.52847,-0.1133 -5.76571,0.0808 -11.54303,0.17447 -17.27581,0.70054 -5.96354,0.56523 -11.91938,1.17009 -17.9468,0.93604 -5.20759,-0.002 -10.41518,0.003 -15.62274,0.0125 -4.28507,4.1e-4 -8.57015,0.001 -12.8552,0.004 -4.2929,0.003 -8.58579,0.0102 -12.87868,0.005 -4.69087,-0.0143 -9.38371,-0.0412 -14.06902,-0.23736 -5.97566,-0.27695 -11.92514,-0.7453 -17.86752,-1.3034 -6.37241,-0.31047 -12.76482,-0.0955 -19.14686,-0.18113 -8.77003,-0.0173 -17.54156,-0.0249 -26.30976,0.13493 -5.95461,0.14551 -11.91119,0.35147 -17.78757,1.1725 -4.7386,0.48183 -9.48487,0.44548 -14.2581,0.40539 -4.47524,-1.3e-4 -8.95049,-4.1e-4 -13.42575,7e-5 -4.88459,9.3e-4 -9.76921,0.0106 -14.65376,0.002 -5.12656,-0.0299 -10.25541,-0.0871 -15.37275,-0.34707 -5.26689,-0.29923 -10.46414,-0.92065 -15.70869,-1.36016 -6.35872,-0.0922 -12.71963,-0.23953 -19.0561,-0.68756 -6.37362,-0.4465 -12.73054,-1.14298 -19.14734,-0.96994 -4.87697,-0.0773 -9.76588,-0.1697 -14.60346,-0.69971 -5.42392,-0.57868 -10.83216,-1.21384 -16.33155,-0.9449 -5.14315,0.008 -10.28627,0.0218 -15.42942,0.0191 -4.85198,-0.002 -9.70396,-0.007 -14.55591,-0.0172 -6.593105,-0.0116 -13.186728,-0.0365 -19.779511,0.0262 -0.564984,-0.60255 13.181837,-8.34134 13.746821,-7.7388 z"
         id="path3421"
         style="opacity:1;fill:#000000;fill-opacity:1;fill-rule:evenodd;stroke:none;stroke-width:2.08200002;stroke-linejoin:miter;stroke-miterlimit:4;stroke-dasharray:none;stroke-opacity:1" />
      <path
         inkscape:connector-curvature="0"
         d="m 182.7263,455.1464 c 2.97883,-4.06145 5.84214,-8.16969 8.77852,-12.24956 2.04202,-2.84247 4.33588,-5.56043 6.29508,-8.43761 2.26754,-2.55496 4.48948,-5.07879 6.31648,-7.84158 1.91207,-3.18131 3.8783,-6.38848 6.74638,-9.12339 7.05387,-4.78172 16.14367,-9.63915 25.87367,-8.81358 4.2518,0.59086 8.52753,1.00637 12.83606,1.23285 5.06505,0.19478 10.13836,0.19878 15.20838,0.2092 5.21416,-0.004 10.42831,-0.003 15.64245,-0.008 4.71483,-0.006 9.42967,-0.0104 14.14449,-0.0126 4.31425,-0.002 8.62849,-0.002 12.94273,-0.002 4.15867,-0.7005 8.37005,-1.13652 12.60781,-1.40793 4.34062,-0.3527 8.74112,0.0244 13.04568,-0.52533 4.25995,-0.69027 8.57988,-1.04585 12.91846,-1.24542 5.12579,-0.17927 10.25948,-0.14184 15.38912,-0.13775 5.48343,-0.45199 10.93465,-1.07681 16.43411,-1.41129 4.62634,-0.25152 9.26557,-0.25191 13.90054,-0.26149 4.83247,-0.004 9.66496,-0.007 14.49741,0.005 5.31829,0.007 10.63658,0.0109 15.95489,0.007 4.452,-0.65898 8.9269,-1.13468 13.4454,-1.41359 4.50857,0.0351 8.86578,-0.84443 13.29968,-1.34683 4.49736,-0.4727 9.03896,-0.51685 13.56891,-0.55856 5.01387,0.25456 9.86554,-0.21153 14.78471,-0.86462 4.15665,-0.5536 8.37321,-0.69218 12.58087,-0.77779 4.78583,-0.0736 9.57278,-0.0374 14.35913,-0.031 5.41966,-0.28827 10.70886,0.26629 16.05631,0.82988 5.38269,0.5218 10.80477,0.69741 16.22342,0.79397 4.29243,0.19515 8.73361,-0.5206 12.73379,0.90872 3.23396,1.94086 3.55769,5.04872 3.84063,7.98668 0.18603,3.32084 0.10853,6.64644 0.0777,9.96919 -0.033,3.33637 -0.0443,6.67282 -0.0508,10.00927 -0.005,3.32576 -0.004,6.65153 -0.004,9.97729 -0.066,3.33539 0.97002,6.60642 1.5073,9.90386 0.0711,0.55953 0.1421,1.11907 0.21316,1.6786 0.4435,0.65907 -14.59284,6.73377 -15.03634,6.07471 l 0,0 c -0.0636,-0.54878 -0.12712,-1.09756 -0.19067,-1.64634 -0.51206,-3.35187 -1.58582,-6.66656 -1.60349,-10.04536 -1.3e-4,-3.32638 -6.7e-4,-6.65275 0.004,-9.97912 0.005,-3.33884 0.0152,-6.6777 0.0474,-10.01646 0.0308,-3.29212 0.10415,-6.58598 -0.033,-9.87716 -0.18017,-2.35044 -0.0844,-5.25271 -2.89398,-6.69623 -3.9652,-0.96963 -8.24254,-0.28096 -12.33423,-0.56699 -5.44975,-0.13713 -10.89868,-0.37313 -16.30938,-0.91862 -5.29228,-0.55333 -10.56129,-0.89205 -15.91158,-0.69412 -4.7952,0.003 -9.5915,0.005 -14.38546,0.0984 -4.16641,0.12137 -8.33171,0.33489 -12.44057,0.915 -4.95058,0.62063 -9.89357,0.79348 -14.91015,0.69323 -4.49606,0.0704 -9.00323,0.17973 -13.45495,0.71596 -4.43623,0.55393 -8.84277,1.23625 -13.3563,1.27256 -4.52625,0.3338 -8.98489,1.00453 -13.50987,1.30826 -5.32152,-0.005 -10.64302,-0.002 -15.96453,-0.003 -4.83049,0.005 -9.66096,-0.0144 -14.49144,0.001 -4.6122,0.0264 -9.22912,0.0647 -13.82946,0.34793 -5.49709,0.37456 -10.95281,1.04795 -16.46326,1.29571 -5.13267,0.0169 -10.27034,0.008 -15.39576,0.24856 -4.31852,0.25432 -8.59308,0.72908 -12.85936,1.30422 -4.34853,0.29318 -8.72803,0.13986 -13.07589,0.48882 -4.2591,0.33191 -8.4525,0.97616 -12.70495,1.31437 -4.3124,-9e-5 -8.62479,-2.2e-4 -12.93717,-0.001 -4.704,-10e-4 -9.40798,-0.004 -14.11197,-0.005 -5.21332,9.7e-4 -10.42664,0.0155 -15.63995,3e-4 -5.10857,-0.0143 -10.22115,-0.0209 -15.32229,-0.26222 -4.29758,-0.27594 -8.54685,-0.79384 -12.82289,-1.20783 -2.02168,0.006 -3.91076,0.12202 -5.85483,0.60225 -0.60306,0.14896 -2.30388,0.79857 -1.76696,0.53886 3.6632,-1.77188 18.24962,-8.49099 11.17355,-5.08022 -3.21832,2.41357 -5.10508,5.67509 -6.93257,8.80389 -1.82905,2.7593 -3.6255,5.4989 -6.2924,7.85478 -1.99891,2.88639 -4.11461,5.68161 -6.32734,8.47478 -2.91546,4.08311 -5.94134,8.11901 -8.7336,12.25146 0.39075,0.67921 -15.10518,6.03139 -15.49593,5.35219 z"
         id="path3423"
         style="opacity:1;fill:#000000;fill-opacity:1;fill-rule:evenodd;stroke:none;stroke-width:2.08200002;stroke-linejoin:miter;stroke-miterlimit:4;stroke-dasharray:none;stroke-opacity:1" />
      <path
         inkscape:connector-curvature="0"
         d="m 77.891043,554.45679 c 6.226539,-0.3735 11.999201,-2.16766 17.807884,-3.78109 5.513743,-1.24113 10.898333,-2.80434 16.311813,-4.28409 4.268,-0.72045 7.97877,-2.49716 11.98913,-3.72254 3.66323,-1.60509 7.72313,-2.25234 11.85129,-2.63198 3.79255,-0.31267 7.43207,-1.20491 11.23527,-1.574 4.00957,-0.96713 8.13914,-1.47345 12.3092,-1.77077 4.29627,-0.24598 8.60715,-0.24857 12.9126,-0.25802 4.29501,-10e-4 8.59002,0.007 12.88501,0.0115 3.73358,0.11026 7.6949,0.58116 11.23041,1.56525 3.4702,0.9367 6.11848,3.0531 9.19556,4.56405 3.53894,1.88583 6.80184,4.05972 10.27469,6.0117 3.62209,1.82489 6.35803,4.49698 9.96238,6.32087 3.02444,1.33155 6.01571,2.32571 9.45398,2.78629 3.93692,1.0223 8.01721,1.52051 12.13719,1.80897 4.33101,0.51112 8.49295,-0.0496 12.7475,-0.59956 4.43313,-0.97464 8.50099,-2.59007 12.49351,-4.34744 4.42295,-1.80249 8.81711,-3.62889 13.34456,-5.2729 5.35594,-2.25792 11.26276,-3.68393 17.14124,-4.88511 4.67171,-0.7734 9.40104,-0.97791 13.83989,-2.42475 3.79667,-1.31087 7.88386,-1.7633 11.98581,-2.03127 4.84924,-0.18793 9.70631,-0.18353 14.56025,-0.18573 5.08369,-0.21224 10.01669,0.4896 14.75623,1.88594 4.84287,1.49586 9.58375,3.24119 13.63491,5.80721 4.02714,1.90326 7.47845,4.38082 11.08717,6.70182 3.1427,1.79663 6.96423,2.03268 10.72987,2.20649 4.8191,0.41717 9.48293,-0.15224 14.21473,-0.75475 4.4151,-0.96565 8.82613,-1.88073 13.03004,-3.32033 6.28517,-2.35171 4.81459,-1.85104 -9.8921,4.49802 -0.73302,0.31645 1.44527,-0.66185 2.14719,-1.01813 1.80021,-0.91376 3.47988,-1.9546 5.27706,-2.87366 7.97527,-4.36584 16.59435,-7.91613 25.13705,-11.59536 -27.17187,12.03108 -3.43276,1.54024 4.5275,-2.0883 4.0314,-1.83765 -16.23153,7.2093 -12.1697,5.41231 6.83956,-3.02589 14.01828,-6.51128 21.23478,-9.3193 -29.27279,14.03118 -14.30377,6.26214 -10.73456,4.6874 9.20964,-4.0633 13.32856,-7.19221 22.18089,-8.23534 4.36703,-0.37895 8.77012,-0.32396 13.15695,-0.31983 4.78301,0.11852 8.7898,1.93823 13.04713,3.36545 3.55809,1.54536 7.00404,3.23806 10.63384,4.68221 4.30881,1.88497 8.40493,4.00068 12.69256,5.91632 4.6846,2.38594 10.042,3.36143 15.50784,3.97449 4.6517,0.42818 9.34266,0.42528 14.01956,0.42728 4.26513,0.0118 8.43547,-0.94662 12.50615,-1.85549 6.18218,-2.14193 22.05005,-9.37641 -3.26885,1.80383 4.56358,-2.56026 9.31706,-4.90569 14.07275,-7.24425 8.62406,-4.60081 17.2719,-7.96591 27.08051,-10.1741 3.89984,-0.73781 7.93105,-0.80191 11.92325,-0.86607 4.84731,-0.0247 9.69477,-0.0126 14.54212,-0.007 3.96244,0.44429 7.83434,1.13009 11.67254,1.9896 4.34022,1.28255 8.59491,2.71346 12.5772,4.57311 4.8385,2.46306 9.58153,4.9639 14.61208,7.18837 2.26356,0.71417 4.24428,1.78724 6.20936,2.88767 0.51463,0.62663 -13.7818,7.67566 -14.29643,7.04903 l 0,0 c -1.94549,-1.044 -3.92334,-2.03769 -6.0869,-2.79915 -5.02481,-2.23781 -9.69654,-4.85331 -14.64058,-7.18982 -3.93267,-1.73481 -8.08836,-3.15025 -12.37431,-4.27888 -3.72044,-0.80843 -7.52657,-1.43926 -11.37902,-1.70768 -4.84434,-0.0106 -9.68985,-0.0387 -14.53326,0.0504 -3.92112,0.10654 -7.88206,0.24882 -11.65529,1.16413 -6.41746,1.67766 -23.14992,7.35488 2.10176,-2.60859 -4.80153,2.24592 -9.54107,4.61598 -14.03982,7.20983 -8.34311,3.79741 -16.76662,8.26339 -25.9458,10.96656 -4.16593,0.89803 -8.44211,1.6813 -12.79646,1.56517 -4.71947,-0.0249 -9.45571,-0.071 -14.13348,-0.61321 -5.60601,-0.75551 -11.04105,-1.94141 -15.87609,-4.35758 -4.27537,-1.90191 -8.30141,-4.09693 -12.67585,-5.86375 -3.56553,-1.47974 -7.00723,-3.12491 -10.56814,-4.61089 -4.07012,-1.42579 -8.01628,-2.9652 -12.61963,-2.92692 -4.34227,0.0167 -8.71581,-0.0108 -13.01417,0.53244 -1.62525,0.274 -2.18668,0.32251 -3.74873,0.76891 -0.60747,0.1736 -2.3396,0.85125 -1.78714,0.58964 4.19472,-1.98637 8.48663,-3.84679 12.72921,-5.77115 0.6143,-0.27863 -1.22955,0.55597 -1.84432,0.83396 -5.48224,2.46995 -10.96449,4.9399 -16.44673,7.40985 -0.73336,0.30458 -1.47114,0.60283 -2.20007,0.91373 -16.00858,6.82801 48.97917,-22.27903 -6.81141,3.02917 -4.04679,1.83574 8.11294,-3.64573 12.16942,-5.46859 -5.57685,2.51529 -11.15369,5.03058 -16.73055,7.54587 -6.7211,2.80761 -1.29676,0.56643 10.39498,-4.77876 0.53657,-0.24531 -1.11476,0.43453 -1.6423,0.69132 -2.71544,1.32185 -0.43833,0.39453 -3.11411,1.87819 -0.56032,0.31069 -1.17818,0.5538 -1.76727,0.83071 -1.95026,0.85097 -3.50601,1.89371 -5.32359,2.88477 -6.67248,3.63827 -13.88266,6.80096 -21.34144,9.37735 -4.31424,1.29055 -8.74988,2.31753 -13.27033,3.07915 -4.80273,0.58939 -9.58957,0.89159 -14.45323,0.50944 -4.07987,-0.27832 -8.0737,-0.80569 -11.34428,-2.88051 -3.54395,-2.3626 -7.06533,-4.7394 -11.02536,-6.68942 -3.98102,-2.40701 -8.61292,-4.04383 -13.30191,-5.45692 -4.68825,-1.20909 -9.51455,-1.68616 -14.45642,-1.49819 -4.82824,0.005 -9.66656,-0.0126 -14.48147,0.3022 -4.04149,0.36511 -7.98304,1.03074 -11.73066,2.30009 -4.52952,1.12601 -9.25026,1.38473 -13.85141,2.28942 -5.84352,1.29347 -11.6333,2.81851 -16.98424,5.08298 -4.4955,1.68433 -8.88398,3.52755 -13.2955,5.339 -4.10399,1.68454 -8.27056,3.31715 -12.87221,4.01164 -4.33458,0.54158 -8.63546,0.80526 -13.01507,0.3214 -4.15765,-0.36411 -8.23082,-1.00762 -12.25551,-1.89947 -3.54649,-0.62303 -6.72987,-1.7685 -9.83562,-3.23104 -3.49125,-1.95715 -6.33179,-4.53111 -9.94659,-6.37657 -3.41835,-1.97585 -6.73778,-4.0515 -10.24839,-5.93265 -2.92222,-1.50035 -5.55837,-3.47053 -8.97293,-4.25819 -3.53274,-0.75509 -7.22098,-1.30744 -10.89529,-1.25282 -4.29298,-0.005 -8.58598,-0.0147 -12.87895,-0.005 -4.27385,0.021 -8.55593,0.0408 -12.81346,0.36436 -4.15894,0.37964 -8.21408,1.08844 -12.289,1.82048 -3.75843,0.46806 -7.41714,1.33379 -11.22385,1.56206 -4.06643,0.50691 -7.93004,1.42746 -11.59588,2.91066 -3.93007,1.36505 -7.83021,2.76656 -12.009203,3.64043 -5.377779,1.4956 -10.79625,2.907 -16.240224,4.25045 -5.887577,1.67125 -11.855558,3.1432 -18.133023,3.63413 -0.575902,-0.59621 13.026411,-8.48455 13.602313,-7.88834 z"
         id="path3437"
         style="opacity:1;fill:#000000;fill-opacity:1;fill-rule:evenodd;stroke:none;stroke-width:2.08200002;stroke-linejoin:miter;stroke-miterlimit:4;stroke-dasharray:none;stroke-opacity:1" />
      <path
         inkscape:connector-curvature="0"
         d="m 365.00188,309.29081 c -0.57849,4.64802 -1.02277,9.29704 -1.48809,13.94546 -0.3646,3.66127 -0.73711,7.32255 -1.11291,10.98384 -0.43153,2.94171 0.37432,5.79324 0.61291,8.68667 0.18419,3.17795 -0.0874,6.38457 -0.36622,9.5827 -0.31043,3.32393 -0.66758,6.64801 -1.01712,9.972 -0.34986,3.32702 -0.69772,6.65405 -1.04357,9.98107 -0.34555,3.32514 -0.69014,6.65029 -1.0348,9.97543 -0.10289,3.16309 -0.7266,6.23808 -1.84976,9.3341 -0.87807,2.69928 -2.51027,5.21958 -3.48549,7.90442 0.3514,0.6694 -15.51821,6.43293 -15.86959,5.76353 l 0,0 c 0.86063,-2.73207 2.39892,-5.25475 3.4713,-7.92658 1.11085,-3.03352 2.04449,-5.98903 2.00515,-9.11003 0.34466,-3.32525 0.68924,-6.6505 1.03468,-9.97575 0.34589,-3.32741 0.69279,-6.65483 1.04269,-9.98224 0.34899,-3.31867 0.70528,-6.63741 1.02297,-9.95605 0.28349,-3.145 0.56838,-6.29779 0.43033,-9.42628 -0.21049,-2.95792 -1.06708,-5.86156 -0.67816,-8.85912 0.3842,-3.66802 0.7707,-7.33605 1.1661,-11.00406 0.49716,-4.63721 1.01589,-9.27504 1.39941,-13.91186 -0.3676,-0.66361 15.39194,-6.64086 15.75955,-5.97725 z"
         id="path3441"
         style="opacity:1;fill:#000000;fill-opacity:1;fill-rule:evenodd;stroke:none;stroke-width:2.08200002;stroke-linejoin:miter;stroke-miterlimit:4;stroke-dasharray:none;stroke-opacity:1" />
      <path
         inkscape:connector-curvature="0"
         d="m 361.88336,306.4753 c 4.57652,3.26031 9.88797,5.5081 15.68896,6.90452 4.46383,0.92354 9.12551,0.99023 13.75225,1.02683 4.31736,0.13056 8.5445,0.0109 12.8388,-0.65786 4.35786,-0.70356 8.70061,-0.67023 12.91176,-2.02078 0.62096,-0.3283 2.50856,-1.2745 1.86291,-0.98489 -4.38647,1.96759 -8.65394,4.14187 -13.09005,6.02091 -1.33335,0.56478 2.22363,-1.73435 3.51338,-2.37253 5.38647,-2.66526 10.75793,-5.36755 16.30109,-7.77241 0.37395,-0.16224 0.80091,0.11937 1.20137,0.17906 2.5744,1.99509 2.10125,5.30129 2.01965,8.09697 -0.18154,3.63697 -0.47792,7.27455 -0.74587,10.91165 -0.26815,3.64894 -0.5191,7.29792 -0.76815,10.94688 -0.24738,3.63146 -0.48975,7.2629 -0.73412,10.89435 -0.24409,3.63015 -0.48825,7.26029 -0.73248,10.89045 -0.24425,3.63034 -0.48854,7.26068 -0.73284,10.89102 -0.2443,3.63038 -0.4886,7.26075 -0.7329,10.89112 -0.24429,3.63038 -0.48859,7.26075 -0.73289,10.89112 -0.16685,2.49423 -0.33269,4.98842 -0.51513,7.48262 0.3863,0.72207 -15.13941,7.22589 -15.52571,6.50382 l 0,0 c 0.15403,-2.49104 0.32236,-4.98206 0.49129,-7.47312 0.2443,-3.63037 0.4886,-7.26075 0.7329,-10.89112 0.2443,-3.63037 0.4886,-7.26075 0.7329,-10.89112 0.2443,-3.63034 0.48859,-7.26067 0.73284,-10.89101 0.24423,-3.63014 0.4884,-7.26028 0.73249,-10.89043 0.24423,-3.63183 0.48817,-7.26367 0.73419,-10.89551 0.2487,-3.65116 0.4994,-7.30233 0.76679,-10.95345 0.26592,-3.62022 0.55835,-7.24073 0.75407,-10.86091 0.0504,-1.38322 0.81528,-5.40995 -0.79831,-6.08733 -5.343,2.05144 -4.29881,1.67426 12.92817,-6.32096 0.60332,-0.28 -1.13482,0.66646 -1.67009,1.03583 -0.63791,0.4402 -1.1447,1.0271 -1.84504,1.38985 -14.16671,7.33781 -11.30922,6.17653 -18.85628,9.05517 -4.30123,1.01202 -8.70903,1.11037 -13.0647,1.8509 -4.34298,0.56424 -8.66442,0.50598 -13.00879,0.44451 -4.7158,-0.0868 -9.45627,-0.26851 -13.95221,-1.37641 -5.86379,-1.61182 -11.17816,-4.06579 -16.01801,-7.21862 -0.47209,-0.68462 14.35498,-8.43374 14.82707,-7.74912 z"
         id="path3443"
         style="opacity:1;fill:#000000;fill-opacity:1;fill-rule:evenodd;stroke:none;stroke-width:2.08200002;stroke-linejoin:miter;stroke-miterlimit:4;stroke-dasharray:none;stroke-opacity:1" />
      <path
         inkscape:connector-curvature="0"
         d="m 397.23603,296.01751 c -2.6102,-1.67124 -5.60578,-3.02373 -8.67435,-4.22973 -2.67723,-0.85895 -5.32197,-1.66438 -8.22205,-2.04174 -1.24281,-0.16729 -2.48264,-0.14027 -3.65583,0.23149 -0.37159,0.11775 -1.40241,0.58612 -1.04546,0.44743 7.97869,-3.10007 9.89175,-4.54121 6.88594,-2.44699 -1.71017,1.38086 -2.18687,3.12571 -2.47058,4.89371 -0.4224,1.79037 0.0649,3.31767 1.2282,4.89629 0.9671,1.67566 2.93176,2.70962 4.85033,3.80451 2.12034,1.17789 4.64387,1.59196 7.25593,1.81157 2.49331,0.23019 4.80664,-0.35202 6.95877,-1.18905 -13.99615,5.98614 -6.48981,3.1904 -4.60446,0.14393 0.61175,-1.29733 0.78284,-2.66419 0.6608,-4.02152 -0.26487,-0.36091 8.72574,-3.68341 8.99059,-3.3225 l 0,0 c 0.22782,1.44494 0.0582,2.89568 -0.44227,4.30929 -1.88309,4.0301 -7.32196,5.4106 -12.52804,7.38371 -2.33253,0.73281 -4.74715,1.15526 -7.31427,0.84189 -2.74388,-0.3087 -5.35147,-0.87249 -7.54984,-2.13668 -2.0307,-1.14975 -4.04059,-2.2993 -5.07875,-4.05106 -1.2599,-1.68184 -1.91691,-3.34793 -1.50158,-5.27084 0.23548,-1.86857 0.62846,-3.74178 2.19661,-5.31225 3.45416,-2.95054 9.75247,-5.83425 15.47996,-5.12101 2.93722,0.46981 5.65377,1.32709 8.36553,2.24426 3.11727,1.27986 6.16523,2.6763 8.87147,4.37089 0.30009,0.3475 -8.35656,4.1119 -8.65665,3.7644 z"
         id="path3449"
         style="opacity:1;fill:#000000;fill-opacity:1;fill-rule:evenodd;stroke:none;stroke-width:2.08200002;stroke-linejoin:miter;stroke-miterlimit:4;stroke-dasharray:none;stroke-opacity:1" />
      <path
         inkscape:connector-curvature="0"
         d="m 457.91691,273.90601 c -4.52788,-2.92808 -9.72425,-5.29771 -15.04725,-7.41068 -4.64415,-1.50492 -9.23194,-2.91607 -14.26267,-3.57723 -2.15587,-0.2931 -4.3066,-0.24576 -6.34171,0.40559 -0.64459,0.2063 -2.43273,1.02691 -1.81353,0.78391 13.8405,-5.43147 17.15906,-7.95642 11.94493,-4.28724 -2.9666,2.41933 -3.79354,5.4764 -4.28569,8.57402 -0.73272,3.13682 0.11267,5.8127 2.13055,8.57852 1.67761,2.93584 5.08567,4.74739 8.41379,6.66569 3.67813,2.06372 8.05565,2.78919 12.58674,3.17396 4.32511,0.40331 8.33801,-0.61675 12.07127,-2.08327 -24.2789,10.48801 -11.25777,5.58974 -7.98727,0.25217 1.06118,-2.27299 1.35798,-4.66779 1.14627,-7.0459 -0.45947,-0.63233 15.1364,-6.4535 15.59584,-5.82117 l 0,0 c 0.39519,2.53159 0.10092,5.07336 -0.76721,7.55007 -3.26657,7.06094 -12.70128,9.47964 -21.73218,12.93663 -4.04621,1.28392 -8.23482,2.02407 -12.68796,1.47503 -4.75977,-0.54086 -9.2831,-1.52864 -13.09659,-3.74357 -3.52261,-2.01442 -7.00915,-4.02848 -8.81002,-7.09765 -2.18553,-2.94667 -3.32522,-5.86574 -2.60477,-9.23478 0.4085,-3.27381 1.09018,-6.55576 3.81042,-9.3073 5.99188,-5.16949 16.91746,-10.2219 26.85285,-8.97227 5.09515,0.82313 9.8075,2.32513 14.51155,3.93206 5.40748,2.24238 10.69473,4.68901 15.38919,7.65801 0.52056,0.60884 -14.49599,7.20424 -15.01655,6.5954 z"
         id="path3449-5"
         style="opacity:1;fill:#000000;fill-opacity:1;fill-rule:evenodd;stroke:none;stroke-width:2.08200002;stroke-linejoin:miter;stroke-miterlimit:4;stroke-dasharray:none;stroke-opacity:1" />
      <path
         inkscape:connector-curvature="0"
         d="m 528.9871,239.42796 c -6.44557,-3.80787 -13.84274,-6.8895 -21.42016,-9.63735 -6.61108,-1.9571 -13.14192,-3.79225 -20.30328,-4.65207 -3.06895,-0.38117 -6.13056,-0.3196 -9.0276,0.52746 -0.91759,0.26828 -3.46306,1.33546 -2.58161,1.01945 19.70232,-7.06346 24.42637,-10.34707 17.00393,-5.57542 -4.22303,3.14626 -5.4002,7.12188 -6.1008,11.15024 -1.04304,4.07933 0.16039,7.55922 3.0329,11.15608 2.38812,3.81797 7.23958,6.17383 11.97725,8.66852 5.2359,2.6838 11.46742,3.62725 17.91756,4.12763 6.1569,0.5245 11.86936,-0.80206 17.18376,-2.70922 -34.56165,13.63932 -16.02572,7.26927 -11.37008,0.32794 1.51061,-2.95595 1.9331,-6.07031 1.63173,-9.16297 -0.65406,-0.82232 21.54707,-8.39257 22.2011,-7.57024 l 0,0 c 0.56255,3.29225 0.14367,6.59774 -1.09214,9.81862 -4.65005,9.18252 -18.08062,12.32797 -30.93633,16.82367 -5.75989,1.6697 -11.72249,2.63224 -18.06166,1.91823 -6.77564,-0.70337 -13.21472,-1.98795 -18.64332,-4.86839 -5.01454,-2.61969 -9.97772,-5.23891 -12.5413,-9.23027 -3.11116,-3.83205 -4.73354,-7.6282 -3.70796,-12.00953 0.5815,-4.25749 1.5519,-8.52556 5.42423,-12.10385 8.5296,-6.72275 24.08244,-13.29325 38.22574,-11.66815 7.25307,1.07046 13.96122,3.02376 20.65756,5.11352 7.6977,2.91615 15.22423,6.09791 21.90692,9.959 0.74103,0.79177 -20.63541,9.36888 -21.37644,8.5771 z"
         id="path3449-5-1"
         style="opacity:1;fill:#000000;fill-opacity:1;fill-rule:evenodd;stroke:none;stroke-width:2.08200002;stroke-linejoin:miter;stroke-miterlimit:4;stroke-dasharray:none;stroke-opacity:1" />
      <path
         inkscape:connector-curvature="0"
         d="m 164.01803,477.35507 c -3.3448,3.7704 -5.4217,8.02007 -6.75799,12.4457 -0.8367,3.81641 1.44407,6.34556 5.53363,8.21204 4.57581,1.56793 8.27126,2.17746 12.75128,0.22094 -23.6585,10.31218 -13.54243,7.08035 -9.97111,3.17553 1.255,-1.37217 1.89686,-2.84776 2.50701,-4.43922 0.9547,-2.89412 1.0168,-5.74138 -0.95579,-8.35952 -1.73082,-2.63797 -4.67784,-3.5024 -8.22303,-3.99847 -6.80883,-0.7318 -16.65095,5.31475 7.57969,-5.1387 0.34708,0.69467 -15.50165,5.44865 -15.84873,4.75398 l 0,0 c 8.89004,-3.91107 13.21309,-8.38731 22.21818,-7.12028 3.87272,0.75436 7.06741,2.06469 8.98511,4.9199 2.16893,2.91746 2.5129,6.00292 1.5488,9.28538 -2.67504,8.67982 -9.92893,10.70367 -21.12856,15.09091 -4.72358,1.28892 -9.3199,0.51029 -13.69371,-1.28817 -4.46027,-2.29631 -7.18852,-5.30246 -6.52968,-9.62568 1.24743,-4.53689 3.23945,-8.89993 6.42252,-12.85843 -0.38518,-0.68212 15.1772,-5.95803 15.56238,-5.27591 z"
         id="path3496"
         style="opacity:1;fill:#000000;fill-opacity:1;fill-rule:evenodd;stroke:none;stroke-width:2.08200002;stroke-linejoin:miter;stroke-miterlimit:4;stroke-dasharray:none;stroke-opacity:1" />
      <path
         inkscape:connector-curvature="0"
         d="m 236.29133,477.35507 c -3.34479,3.7704 -5.4217,8.02007 -6.75799,12.4457 -0.83669,3.81641 1.44407,6.34556 5.53363,8.21204 4.57582,1.56793 8.27127,2.17746 12.75128,0.22094 -23.6585,10.31218 -13.54243,7.08035 -9.97111,3.17553 1.255,-1.37217 1.89687,-2.84776 2.50701,-4.43922 0.9547,-2.89412 1.01681,-5.74138 -0.95579,-8.35952 -1.73082,-2.63797 -4.67784,-3.5024 -8.22302,-3.99847 -6.80883,-0.7318 -16.65096,5.31475 7.57969,-5.1387 0.34707,0.69467 -15.50166,5.44865 -15.84874,4.75398 l 0,0 c 8.89004,-3.91107 13.2131,-8.38731 22.21818,-7.12028 3.87273,0.75436 7.06741,2.06469 8.98511,4.9199 2.16893,2.91746 2.5129,6.00292 1.5488,9.28538 -2.67504,8.67982 -9.92893,10.70367 -21.12856,15.09091 -4.72357,1.28892 -9.3199,0.51029 -13.69371,-1.28817 -4.46027,-2.29631 -7.18852,-5.30246 -6.52967,-9.62568 1.24742,-4.53689 3.23944,-8.89993 6.42251,-12.85843 -0.38517,-0.68212 15.1772,-5.95803 15.56238,-5.27591 z"
         id="path3496-7"
         style="opacity:1;fill:#000000;fill-opacity:1;fill-rule:evenodd;stroke:none;stroke-width:2.08200002;stroke-linejoin:miter;stroke-miterlimit:4;stroke-dasharray:none;stroke-opacity:1" />
      <path
         inkscape:connector-curvature="0"
         d="m 305.98345,477.35507 c -3.3448,3.7704 -5.4217,8.02007 -6.758,12.4457 -0.83669,3.81641 1.44407,6.34556 5.53363,8.21204 4.57582,1.56793 8.27127,2.17746 12.75129,0.22094 -23.6585,10.31218 -13.54243,7.08035 -9.97111,3.17553 1.255,-1.37217 1.89686,-2.84776 2.507,-4.43922 0.95471,-2.89412 1.01681,-5.74138 -0.95579,-8.35952 -1.73081,-2.63797 -4.67783,-3.5024 -8.22302,-3.99847 -6.80883,-0.7318 -16.65096,5.31475 7.57969,-5.1387 0.34708,0.69467 -15.50166,5.44865 -15.84874,4.75398 l 0,0 c 8.89005,-3.91107 13.2131,-8.38731 22.21819,-7.12028 3.87272,0.75436 7.06741,2.06469 8.9851,4.9199 2.16894,2.91746 2.51291,6.00292 1.54881,9.28538 -2.67504,8.67982 -9.92894,10.70367 -21.12856,15.09091 -4.72358,1.28892 -9.3199,0.51029 -13.69371,-1.28817 -4.46027,-2.29631 -7.18853,-5.30246 -6.52968,-9.62568 1.24743,-4.53689 3.23945,-8.89993 6.42252,-12.85843 -0.38518,-0.68212 15.1772,-5.95803 15.56238,-5.27591 z"
         id="path3496-7-3"
         style="opacity:1;fill:#000000;fill-opacity:1;fill-rule:evenodd;stroke:none;stroke-width:2.08200002;stroke-linejoin:miter;stroke-miterlimit:4;stroke-dasharray:none;stroke-opacity:1" />
      <path
         inkscape:connector-curvature="0"
         d="m 378.25675,477.35507 c -3.3448,3.7704 -5.4217,8.02007 -6.75799,12.4457 -0.8367,3.81641 1.44407,6.34556 5.53363,8.21204 4.57581,1.56793 8.27126,2.17746 12.75128,0.22094 -23.6585,10.31218 -13.54243,7.08035 -9.97111,3.17553 1.255,-1.37217 1.89686,-2.84776 2.50701,-4.43922 0.9547,-2.89412 1.0168,-5.74138 -0.95579,-8.35952 -1.73082,-2.63797 -4.67784,-3.5024 -8.22303,-3.99847 -6.80883,-0.7318 -16.65095,5.31475 7.57969,-5.1387 0.34708,0.69467 -15.50165,5.44865 -15.84873,4.75398 l 0,0 c 8.89004,-3.91107 13.21309,-8.38731 22.21818,-7.12028 3.87272,0.75436 7.06741,2.06469 8.98511,4.9199 2.16893,2.91746 2.5129,6.00292 1.5488,9.28538 -2.67504,8.67982 -9.92893,10.70367 -21.12856,15.09091 -4.72357,1.28892 -9.3199,0.51029 -13.69371,-1.28817 -4.46027,-2.29631 -7.18852,-5.30246 -6.52967,-9.62568 1.24742,-4.53689 3.23944,-8.89993 6.42251,-12.85843 -0.38518,-0.68212 15.1772,-5.95803 15.56238,-5.27591 z"
         id="path3496-7-3-1"
         style="opacity:1;fill:#000000;fill-opacity:1;fill-rule:evenodd;stroke:none;stroke-width:2.08200002;stroke-linejoin:miter;stroke-miterlimit:4;stroke-dasharray:none;stroke-opacity:1" />
      <path
         inkscape:connector-curvature="0"
         d="m 460.85481,477.35507 c -3.3448,3.7704 -5.4217,8.02007 -6.75799,12.4457 -0.8367,3.81641 1.44407,6.34556 5.53363,8.21204 4.57581,1.56793 8.27126,2.17746 12.75128,0.22094 -23.6585,10.31218 -13.54243,7.08035 -9.97111,3.17553 1.255,-1.37217 1.89687,-2.84776 2.50701,-4.43922 0.9547,-2.89412 1.01681,-5.74138 -0.95579,-8.35952 -1.73082,-2.63797 -4.67784,-3.5024 -8.22303,-3.99847 -6.80882,-0.7318 -16.65095,5.31475 7.57969,-5.1387 0.34708,0.69467 -15.50165,5.44865 -15.84873,4.75398 l 0,0 c 8.89004,-3.91107 13.21309,-8.38731 22.21818,-7.12028 3.87273,0.75436 7.06741,2.06469 8.98511,4.9199 2.16893,2.91746 2.5129,6.00292 1.5488,9.28538 -2.67504,8.67982 -9.92893,10.70367 -21.12856,15.09091 -4.72357,1.28892 -9.3199,0.51029 -13.69371,-1.28817 -4.46027,-2.29631 -7.18852,-5.30246 -6.52967,-9.62568 1.24742,-4.53689 3.23944,-8.89993 6.42251,-12.85843 -0.38518,-0.68212 15.1772,-5.95803 15.56238,-5.27591 z"
         id="path3496-7-3-1-3"
         style="opacity:1;fill:#000000;fill-opacity:1;fill-rule:evenodd;stroke:none;stroke-width:2.08200002;stroke-linejoin:miter;stroke-miterlimit:4;stroke-dasharray:none;stroke-opacity:1" />
      <path
         inkscape:connector-curvature="0"
         d="m 538.29049,477.35507 c -3.34479,3.7704 -5.4217,8.02007 -6.75799,12.4457 -0.83669,3.81641 1.44407,6.34556 5.53363,8.21204 4.57582,1.56793 8.27127,2.17746 12.75128,0.22094 -23.6585,10.31218 -13.54243,7.08035 -9.97111,3.17553 1.255,-1.37217 1.89687,-2.84776 2.50701,-4.43922 0.9547,-2.89412 1.01681,-5.74138 -0.95579,-8.35952 -1.73082,-2.63797 -4.67784,-3.5024 -8.22302,-3.99847 -6.80883,-0.7318 -16.65096,5.31475 7.57969,-5.1387 0.34707,0.69467 -15.50166,5.44865 -15.84874,4.75398 l 0,0 c 8.89004,-3.91107 13.2131,-8.38731 22.21818,-7.12028 3.87273,0.75436 7.06741,2.06469 8.98511,4.9199 2.16893,2.91746 2.5129,6.00292 1.5488,9.28538 -2.67504,8.67982 -9.92893,10.70367 -21.12856,15.09091 -4.72357,1.28892 -9.3199,0.51029 -13.69371,-1.28817 -4.46027,-2.29631 -7.18852,-5.30246 -6.52967,-9.62568 1.24742,-4.53689 3.23944,-8.89993 6.42251,-12.85843 -0.38517,-0.68212 15.1772,-5.95803 15.56238,-5.27591 z"
         id="path3496-7-3-1-3-7"
         style="opacity:1;fill:#000000;fill-opacity:1;fill-rule:evenodd;stroke:none;stroke-width:2.08200002;stroke-linejoin:miter;stroke-miterlimit:4;stroke-dasharray:none;stroke-opacity:1" />
      <path
         inkscape:connector-curvature="0"
         d="m 256.04917,430.04296 c 5.97894,0.0497 11.95846,0.0301 17.93763,0.0217 4.66593,0.16068 9.41148,-0.35349 14.02985,0.25102 3.67608,0.71611 7.42555,1.05672 11.19933,1.2465 3.56497,0.78302 7.1732,1.30533 10.85891,1.57571 4.13438,0.23796 8.28327,0.23952 12.42661,0.25066 4.2924,0.003 8.58479,-0.005 12.87718,-0.008 4.2936,-0.003 8.5872,-0.004 12.88081,-0.005 4.29136,-2.8e-4 8.58272,-1.9e-4 12.87407,-1.6e-4 4.29121,4e-5 8.58241,5e-5 12.8736,6e-5 4.27075,-0.11233 8.58489,0.2688 12.81325,-0.26152 4.11665,-0.55249 8.19128,-0.91582 12.1954,-1.83749 4.37288,-0.79244 8.86224,-1.01003 13.33435,-1.15272 4.38031,-0.10384 8.76337,-0.0914 13.14521,-0.0881 4.49374,0.002 8.98747,0.0145 13.4812,0.0205 5.34155,0.0156 10.68316,0.006 16.02472,10e-4 4.4788,-0.004 8.95759,-0.006 13.4364,-0.006 5.0006,0.003 10.00121,0.0115 15.00182,0.0131 4.9553,-0.002 9.91058,-0.008 14.86587,-0.0106 0.56347,0.60091 -13.14631,8.31885 -13.70977,7.71794 l 0,0 c -4.94267,-0.003 -9.88535,-0.009 -14.82802,-0.0106 -5.01617,0.002 -10.03232,0.0102 -15.04847,0.0132 -4.47127,-7e-4 -8.94255,-0.002 -13.41381,-0.006 -5.34051,-0.005 -10.68106,-0.0152 -16.02156,-0.004 -4.50253,10e-4 -9.00505,0.004 -13.50757,-0.005 -4.36354,5e-5 -8.72919,-0.008 -13.08973,0.13565 -4.41878,0.18845 -8.8566,0.47112 -13.13476,1.40661 -4.04321,0.82515 -8.21631,1.10653 -12.33009,1.66244 -4.30144,0.26557 -8.62203,0.0844 -12.93409,0.13619 -4.2912,-1e-5 -8.5824,-3e-5 -12.8736,-6e-5 -4.29129,-3e-5 -8.58258,-1.1e-4 -12.87388,3.1e-4 -4.29321,6e-4 -8.58641,0.002 -12.87961,0.006 -4.29481,0.004 -8.58964,0.0131 -12.88444,0.002 -4.18297,-0.0215 -8.37429,-0.0377 -12.54165,-0.35094 -3.65914,-0.33728 -7.213,-0.99994 -10.82298,-1.54285 -3.79335,-0.24415 -7.53374,-0.70427 -11.25979,-1.30669 -4.59257,-0.33222 -9.22777,-0.0348 -13.83431,-0.14671 -6.00493,-0.008 -12.01018,-0.0276 -18.01488,0.0217 -0.565,-0.60254 13.18182,-8.34133 13.7468,-7.73879 z"
         id="path3583"
         style="opacity:1;fill:#000000;fill-opacity:1;fill-rule:evenodd;stroke:none;stroke-width:2.08200002;stroke-linejoin:miter;stroke-miterlimit:4;stroke-dasharray:none;stroke-opacity:1" />
      <path
         inkscape:connector-curvature="0"
         d="m 90.136993,458.75499 c 1.239061,5.16341 4.042607,9.96126 6.649363,14.76872 1.597872,4.06614 3.626444,7.97868 5.627784,11.93034 1.44603,3.55187 3.68612,6.80271 4.99554,10.39303 0.68372,3.39046 1.96121,6.67549 2.84463,10.03315 0.35224,3.21483 2.18617,6.03798 4.17792,8.80154 1.9704,2.78908 2.54286,5.96009 3.5389,9.00395 0.83795,3.05156 1.29652,6.10915 2.77278,9.02909 1.18213,2.22744 2.30312,4.47239 3.5411,6.6815 0.46928,0.6462 -14.27367,7.0742 -14.74297,6.42799 l 0,0 c -1.26343,-2.21358 -2.41228,-4.46282 -3.62253,-6.69411 -1.56509,-2.96449 -2.08971,-6.06059 -2.86496,-9.18782 -0.96742,-2.93365 -1.51319,-5.99214 -3.334375,-8.7037 -2.051439,-2.87162 -4.055165,-5.82796 -4.43824,-9.15893 -0.826664,-3.33971 -2.135611,-6.59171 -2.732989,-9.96722 -1.253335,-3.56346 -3.549858,-6.74655 -4.930007,-10.27377 -1.947378,-3.957 -4.033728,-7.84976 -5.537968,-11.92968 -2.601038,-4.85711 -5.360962,-9.70081 -6.857368,-14.85528 -0.459852,-0.65367 14.453538,-6.95247 14.91339,-6.2988 z"
         id="path3585"
         style="opacity:1;fill:#000000;fill-opacity:1;fill-rule:evenodd;stroke:none;stroke-width:2.08200002;stroke-linejoin:miter;stroke-miterlimit:4;stroke-dasharray:none;stroke-opacity:1" />
      <path
         inkscape:connector-curvature="0"
         d="m 647.59639,453.92827 c -0.42865,4.72815 0.47316,9.40274 1.2062,14.08012 1.00505,3.13171 2.07226,6.22627 2.61148,9.4316 0.44079,3.22778 0.45397,6.47781 0.47801,9.71986 0.009,3.32222 -0.005,6.64445 -0.0116,9.96667 -0.006,3.32618 -0.008,6.65236 -0.008,9.97853 -0.23881,3.07106 -1.38465,6.00709 -2.83631,8.8494 -1.86761,2.62326 -3.94012,5.1563 -6.05785,7.66289 -1.82997,2.43518 -3.36975,4.97398 -5.38393,7.32845 -0.2678,0.36224 -0.53561,0.72449 -0.80341,1.08673 0.39501,0.67959 -15.10969,6.09021 -15.50471,5.41061 l 0,0 c 0.24565,-0.40054 0.49129,-0.80108 0.73694,-1.20163 1.96472,-2.38872 3.92845,-4.73702 5.39581,-7.34964 2.15068,-2.45145 4.04249,-5.0012 6.20893,-7.44246 1.55098,-2.6764 2.60089,-5.4697 3.13438,-8.37912 6.6e-4,-3.3267 0.001,-6.6534 0.008,-9.9801 0.006,-3.31948 0.0186,-6.63897 0.0142,-9.95846 -0.0168,-3.19369 -0.0177,-6.39393 -0.39754,-9.57695 -0.48702,-3.2198 -1.52352,-6.3279 -2.55149,-9.46535 -0.69092,-4.71591 -1.59681,-9.42198 -1.37866,-14.1839 -0.43639,-0.66361 14.70361,-6.64086 15.13998,-5.97725 z"
         id="path3587"
         style="opacity:1;fill:#000000;fill-opacity:1;fill-rule:evenodd;stroke:none;stroke-width:2.08200002;stroke-linejoin:miter;stroke-miterlimit:4;stroke-dasharray:none;stroke-opacity:1" />
      <path
         inkscape:connector-curvature="0"
         d="m 172.35,232.6899 c 9.78594,-4.68041 19.17357,-10.22375 30.33383,-12.71285 5.26506,-0.75075 10.70782,-1.57777 15.90569,-0.29017 4.68109,1.06946 8.01332,3.88584 11.55972,6.31672 2.76178,2.11407 4.60761,4.8742 6.05216,7.64408 -0.16589,-0.40521 0.44745,1.34214 0.96117,1.12992 0.19713,-0.0814 0.41547,-0.57018 0.21651,-0.49146 -19.42128,7.68484 -16.96896,8.98209 -12.80263,4.65197 1.56737,-2.65274 3.11675,-5.20709 5.40647,-7.53781 6.95287,-5.17929 15.89513,-9.83466 25.14311,-11.70336 4.55009,-0.74108 9.21652,-0.78753 13.84628,-0.81342 5.03164,-0.33566 9.15387,0.91056 12.73051,3.57255 0.50525,0.6337 -13.95251,7.55427 -14.45776,6.92057 l 0,0 c -3.44513,-2.39202 -7.33783,-3.0903 -11.95211,-2.76809 -4.55348,0.0799 -9.16291,0.15374 -13.57787,1.1208 -6.65241,1.8283 -2.88286,0.90925 10.53677,-5.23667 0.55647,-0.25486 -1.11979,0.50278 -1.65128,0.78785 -1.14271,0.6129 -2.30635,1.20386 -3.41584,1.85235 -0.57227,0.33448 -1.07319,0.73655 -1.60976,1.10482 -2.40753,2.22252 -4.28465,4.57907 -5.40592,7.37128 -3.36908,4.98053 -15.41214,13.11253 -18.80994,6.45741 -1.30642,-2.59491 -3.01709,-5.18207 -5.60906,-7.14025 -3.35371,-2.35088 -6.60007,-4.92595 -11.13945,-5.80109 -5.06299,-0.86104 -10.31139,-0.0499 -15.28451,0.85951 -1.842,0.47832 -7.07588,2.43074 -5.44169,1.61682 22.12919,-11.02155 11.52514,-5.18242 6.64136,-2.76152 -0.76411,0.37877 -1.57117,0.70278 -2.35677,1.05416 0.35014,0.69337 -15.46886,5.48924 -15.81899,4.79588 z"
         id="path3589"
         style="opacity:1;fill:#000000;fill-opacity:1;fill-rule:evenodd;stroke:none;stroke-width:2.08200002;stroke-linejoin:miter;stroke-miterlimit:4;stroke-dasharray:none;stroke-opacity:1" />
      <path
         inkscape:connector-curvature="0"
         d="m 610.56379,477.35507 c -3.34479,3.7704 -5.42169,8.02007 -6.75799,12.4457 -0.83669,3.81641 1.44407,6.34556 5.53363,8.21204 4.57582,1.56793 8.27127,2.17746 12.75129,0.22094 -23.6585,10.31218 -13.54243,7.08035 -9.97111,3.17553 1.255,-1.37217 1.89686,-2.84776 2.507,-4.43922 0.95471,-2.89412 1.01681,-5.74138 -0.95579,-8.35952 -1.73081,-2.63797 -4.67783,-3.5024 -8.22302,-3.99847 -6.80883,-0.7318 -16.65096,5.31475 7.57969,-5.1387 0.34708,0.69467 -15.50166,5.44865 -15.84874,4.75398 l 0,0 c 8.89005,-3.91107 13.2131,-8.38731 22.21818,-7.12028 3.87273,0.75436 7.06742,2.06469 8.98511,4.9199 2.16894,2.91746 2.51291,6.00292 1.54881,9.28538 -2.67505,8.67982 -9.92894,10.70367 -21.12856,15.09091 -4.72358,1.28892 -9.3199,0.51029 -13.69372,-1.28817 -4.46026,-2.29631 -7.18852,-5.30246 -6.52967,-9.62568 1.24743,-4.53689 3.23945,-8.89993 6.42252,-12.85843 -0.38518,-0.68212 15.1772,-5.95803 15.56237,-5.27591 z"
         id="path3496-7-3-1-3-7-9"
         style="opacity:1;fill:#000000;fill-opacity:1;fill-rule:evenodd;stroke:none;stroke-width:2.08200002;stroke-linejoin:miter;stroke-miterlimit:4;stroke-dasharray:none;stroke-opacity:1" />
    </g>
  </g>
</svg>
